<svg xmlns="http://www.w3.org/2000/svg" viewBox="0 0 1000 300"><g fill="#4d9b55"><path d="M20 270c30-70 90-95 150-70 40-65 120-70 165-10 65-30 140 5 150 80z"/><path d="M560 270c20-55 70-80 120-55 35-55 105-45 130 5 55-25 120 10 130 50z"/></g><g fill="#71bd54"><ellipse cx="80" cy="245" rx="34" ry="20"/><ellipse cx="205" cy="235" rx="45" ry="24"/><ellipse cx="680" cy="245" rx="38" ry="22"/><ellipse cx="860" cy="230" rx="48" ry="25"/></g><g stroke="#398c55" stroke-width="9" stroke-linecap="round"><path d="M330 270v-80M355 270v-105M385 270v-75M735 270v-80M765 270v-105M800 270v-65"/></g><g fill="#ff5c83" stroke="#32216b" stroke-width="3"><circle cx="330" cy="180" r="18"/><circle cx="355" cy="165" r="18"/><circle cx="385" cy="195" r="18"/><circle cx="735" cy="190" r="18"/><circle cx="765" cy="165" r="18"/><circle cx="800" cy="205" r="18"/></g><g fill="#ffd447"><circle cx="330" cy="180" r="6"/><circle cx="355" cy="165" r="6"/><circle cx="385" cy="195" r="6"/><circle cx="735" cy="190" r="6"/><circle cx="765" cy="165" r="6"/><circle cx="800" cy="205" r="6"/></g></svg>