<svg xmlns="http://www.w3.org/2000/svg" viewBox="0 0 1200 1500" role="img" aria-labelledby="title desc">
  <title id="title">Sıcak ve güvenli kreş sınıfı</title>
  <desc id="desc">Öğretmen ve çocukların oyun oynadığı pastel renkli sınıf illüstrasyonu.</desc>
  <defs>
    <linearGradient id="bg" x1="0" y1="0" x2="1" y2="1"><stop stop-color="#eef8ff"/><stop offset=".52" stop-color="#dff7ef"/><stop offset="1" stop-color="#fff2c9"/></linearGradient>
    <linearGradient id="window" x1="0" y1="0" x2="0" y2="1"><stop stop-color="#bfe8ff"/><stop offset="1" stop-color="#f7fdff"/></linearGradient>
    <linearGradient id="rug" x1="0" y1="0" x2="1" y2="1"><stop stop-color="#7667e8"/><stop offset="1" stop-color="#55c8bc"/></linearGradient>
    <filter id="shadow"><feDropShadow dx="0" dy="20" stdDeviation="24" flood-color="#243a73" flood-opacity=".13"/></filter>
  </defs>
  <rect width="1200" height="1500" rx="90" fill="url(#bg)"/>
  <circle cx="1040" cy="180" r="170" fill="#fff" opacity=".45"/>
  <circle cx="160" cy="260" r="120" fill="#fff" opacity=".35"/>
  <rect x="120" y="130" width="960" height="1110" rx="54" fill="#fffdf8" opacity=".82" filter="url(#shadow)"/>
  <rect x="190" y="210" width="390" height="340" rx="36" fill="url(#window)" stroke="#fff" stroke-width="18"/>
  <path d="M385 210v340M190 380h390" stroke="#fff" stroke-width="18"/>
  <circle cx="285" cy="300" r="42" fill="#ffd45c"/>
  <path d="M210 505c70-75 145-98 225-70 48 17 92 15 145-8v123H190z" fill="#8ed8a8"/>
  <rect x="675" y="230" width="285" height="245" rx="34" fill="#f3f0ff"/>
  <path d="M735 405V310l62 48 62-84 61 131" fill="none" stroke="#7667e8" stroke-width="22" stroke-linecap="round" stroke-linejoin="round"/>
  <circle cx="752" cy="300" r="24" fill="#ffb56f"/>
  <circle cx="905" cy="300" r="24" fill="#55c8bc"/>
  <ellipse cx="600" cy="1010" rx="405" ry="205" fill="url(#rug)" opacity=".94"/>
  <ellipse cx="600" cy="970" rx="310" ry="118" fill="#fff" opacity=".2"/>
  <g transform="translate(315 570)">
    <circle cx="150" cy="135" r="72" fill="#f3bd91"/>
    <path d="M78 130c8-86 52-130 126-104 42 15 62 52 64 98-38-16-67-49-80-82-19 43-57 74-110 88z" fill="#5b3f79"/>
    <rect x="87" y="210" width="130" height="230" rx="62" fill="#7667e8"/>
    <path d="M93 265 10 350M210 270l95 78" stroke="#f3bd91" stroke-width="38" stroke-linecap="round"/>
    <path d="M115 435 80 570M190 435l42 135" stroke="#40508f" stroke-width="42" stroke-linecap="round"/>
    <circle cx="128" cy="138" r="7" fill="#413049"/><circle cx="177" cy="138" r="7" fill="#413049"/>
    <path d="M132 174c18 14 35 14 52 0" fill="none" stroke="#a95d67" stroke-width="7" stroke-linecap="round"/>
  </g>
  <g transform="translate(670 665)">
    <circle cx="120" cy="120" r="64" fill="#d99b70"/>
    <path d="M57 116c5-70 39-108 96-104 57 4 83 43 86 99-49-8-88-33-115-72-13 39-36 65-67 77z" fill="#3f345d"/>
    <rect x="63" y="185" width="115" height="178" rx="56" fill="#55c8bc"/>
    <path d="M86 354 62 462M157 354l30 108" stroke="#44528d" stroke-width="36" stroke-linecap="round"/>
    <path d="M70 245 6 294M171 245l70 50" stroke="#d99b70" stroke-width="30" stroke-linecap="round"/>
    <circle cx="100" cy="122" r="6" fill="#3c2d34"/><circle cx="142" cy="122" r="6" fill="#3c2d34"/>
    <path d="M102 153c14 10 27 10 40 0" fill="none" stroke="#99555f" stroke-width="6" stroke-linecap="round"/>
  </g>
  <g transform="translate(170 805)">
    <circle cx="115" cy="110" r="60" fill="#f1b88d"/>
    <path d="M55 105c2-66 34-101 93-99 54 2 78 39 79 92-28-3-54-17-76-44-25 35-57 52-96 51z" fill="#c56d47"/>
    <rect x="58" y="172" width="112" height="160" rx="54" fill="#ffb66c"/>
    <path d="M82 322 62 420M150 322l27 98" stroke="#6a5fa5" stroke-width="34" stroke-linecap="round"/>
    <circle cx="96" cy="110" r="6" fill="#473036"/><circle cx="135" cy="110" r="6" fill="#473036"/>
    <path d="M98 140c12 10 25 10 38 0" fill="none" stroke="#a85b62" stroke-width="6" stroke-linecap="round"/>
  </g>
  <g filter="url(#shadow)">
    <rect x="500" y="850" width="165" height="105" rx="20" fill="#fff"/>
    <rect x="520" y="876" width="46" height="46" rx="10" fill="#ffd45c"/>
    <rect x="579" y="876" width="62" height="18" rx="9" fill="#7667e8" opacity=".7"/>
    <rect x="579" y="906" width="46" height="13" rx="7" fill="#55c8bc" opacity=".8"/>
    <rect x="735" y="1000" width="100" height="100" rx="18" fill="#ff8e9f"/>
    <path d="M753 1068 785 1024l32 44z" fill="#fff" opacity=".9"/>
    <rect x="420" y="1080" width="95" height="95" rx="17" fill="#ffd45c"/>
    <circle cx="468" cy="1127" r="25" fill="#fff" opacity=".9"/>
  </g>
  <path d="M890 750c70-70 128-45 148 11 17 49-8 99-70 141-65-41-91-90-75-139 2-5 4-9 7-13z" fill="#ff8e9f" opacity=".85"/>
  <path d="M155 1220h890" stroke="#b8d6cc" stroke-width="16" stroke-linecap="round" opacity=".5"/>
</svg>