<svg xmlns="http://www.w3.org/2000/svg" viewBox="0 0 1200 1500" role="img" aria-labelledby="title desc">
  <title id="title">Günlük gelişim ve etkinlik takibi</title>
  <desc id="desc">Etkinlik planı, gelişim panosu, öğretmen ve çocuk illüstrasyonu.</desc>
  <defs>
    <linearGradient id="bg" x1="0" y1="0" x2="1" y2="1"><stop stop-color="#f3f0ff"/><stop offset=".5" stop-color="#e4f8f4"/><stop offset="1" stop-color="#fff2cf"/></linearGradient>
    <linearGradient id="board" x1="0" y1="0" x2="1" y2="1"><stop stop-color="#ffffff"/><stop offset="1" stop-color="#eef4ff"/></linearGradient>
    <filter id="shadow"><feDropShadow dx="0" dy="22" stdDeviation="25" flood-color="#2c3f75" flood-opacity=".14"/></filter>
  </defs>
  <rect width="1200" height="1500" rx="90" fill="url(#bg)"/>
  <circle cx="1030" cy="160" r="170" fill="#fff" opacity=".45"/>
  <circle cx="160" cy="1320" r="210" fill="#9de2cf" opacity=".22"/>
  <rect x="120" y="110" width="960" height="1190" rx="58" fill="#fffdf9" opacity=".82" filter="url(#shadow)"/>
  <g filter="url(#shadow)">
    <rect x="170" y="185" width="565" height="440" rx="42" fill="url(#board)"/>
    <rect x="215" y="230" width="475" height="58" rx="18" fill="#7667e8" opacity=".12"/>
    <circle cx="260" cy="259" r="16" fill="#7667e8"/>
    <rect x="296" y="246" width="185" height="18" rx="9" fill="#5a5293" opacity=".72"/>
    <rect x="215" y="330" width="134" height="105" rx="22" fill="#e7f8f4"/>
    <rect x="368" y="330" width="134" height="105" rx="22" fill="#fff0d4"/>
    <rect x="521" y="330" width="169" height="105" rx="22" fill="#f6e9ff"/>
    <path d="M250 390h62M402 390h66M555 390h96" stroke="#4f46a5" stroke-width="13" stroke-linecap="round" opacity=".55"/>
    <rect x="215" y="470" width="475" height="108" rx="24" fill="#f8fbff"/>
    <path d="M255 540c65-55 104-4 155-35 56-35 79-71 133-42 42 23 65 4 105-34" fill="none" stroke="#55c8bc" stroke-width="18" stroke-linecap="round"/>
    <circle cx="255" cy="540" r="13" fill="#55c8bc"/><circle cx="410" cy="505" r="13" fill="#7667e8"/><circle cx="543" cy="463" r="13" fill="#ffb55f"/><circle cx="648" cy="429" r="13" fill="#ff8da1"/>
  </g>
  <g transform="translate(735 180)">
    <rect x="0" y="0" width="270" height="445" rx="42" fill="#dff6ef"/>
    <rect x="30" y="36" width="210" height="120" rx="28" fill="#fff" opacity=".9"/>
    <circle cx="84" cy="96" r="34" fill="#ffd45c"/>
    <path d="M78 96h12M84 90v12" stroke="#fff" stroke-width="8" stroke-linecap="round"/>
    <rect x="132" y="76" width="78" height="15" rx="8" fill="#4c5487" opacity=".65"/>
    <rect x="132" y="105" width="56" height="12" rx="6" fill="#55c8bc" opacity=".75"/>
    <g transform="translate(35 195)">
      <rect width="200" height="46" rx="16" fill="#fff"/>
      <circle cx="29" cy="23" r="12" fill="#7667e8"/><rect x="55" y="16" width="112" height="14" rx="7" fill="#65709d" opacity=".58"/>
      <rect y="66" width="200" height="46" rx="16" fill="#fff"/>
      <circle cx="29" cy="89" r="12" fill="#55c8bc"/><rect x="55" y="82" width="128" height="14" rx="7" fill="#65709d" opacity=".58"/>
      <rect y="132" width="200" height="46" rx="16" fill="#fff"/>
      <circle cx="29" cy="155" r="12" fill="#ffb55f"/><rect x="55" y="148" width="96" height="14" rx="7" fill="#65709d" opacity=".58"/>
    </g>
  </g>
  <g transform="translate(220 700)">
    <ellipse cx="410" cy="445" rx="365" ry="115" fill="#d9e8ff" opacity=".72"/>
    <rect x="205" y="290" width="410" height="120" rx="28" fill="#ffcb78"/>
    <rect x="245" y="405" width="36" height="150" rx="18" fill="#8c6d4f"/>
    <rect x="540" y="405" width="36" height="150" rx="18" fill="#8c6d4f"/>
    <g transform="translate(0 40)">
      <circle cx="175" cy="145" r="72" fill="#f1b98e"/>
      <path d="M103 144c4-86 47-129 117-110 47 13 67 52 69 100-42-10-75-37-97-80-21 42-50 70-89 90z" fill="#6d477f"/>
      <rect x="111" y="220" width="132" height="220" rx="64" fill="#7667e8"/>
      <path d="M116 280 38 340M238 282l92 45" stroke="#f1b98e" stroke-width="36" stroke-linecap="round"/>
      <path d="M142 438 110 560M215 438l38 122" stroke="#44568e" stroke-width="40" stroke-linecap="round"/>
      <circle cx="153" cy="145" r="7" fill="#443046"/><circle cx="201" cy="145" r="7" fill="#443046"/>
      <path d="M156 177c17 13 33 13 49 0" fill="none" stroke="#a9606c" stroke-width="7" stroke-linecap="round"/>
    </g>
    <g transform="translate(530 130)">
      <circle cx="120" cy="120" r="62" fill="#d69a70"/>
      <path d="M58 118c3-70 38-104 92-101 56 4 81 42 84 96-40-5-76-26-109-67-16 37-38 61-67 72z" fill="#453653"/>
      <rect x="63" y="183" width="115" height="172" rx="55" fill="#55c8bc"/>
      <path d="M84 347 62 446M157 347l28 99" stroke="#4a5b8e" stroke-width="34" stroke-linecap="round"/>
      <path d="M68 242 5 292M173 242l68 48" stroke="#d69a70" stroke-width="30" stroke-linecap="round"/>
      <circle cx="100" cy="121" r="6" fill="#3b2c33"/><circle cx="141" cy="121" r="6" fill="#3b2c33"/>
      <path d="M103 151c13 10 26 10 39 0" fill="none" stroke="#965760" stroke-width="6" stroke-linecap="round"/>
    </g>
    <g transform="translate(325 295)">
      <rect width="154" height="92" rx="18" fill="#fff"/>
      <circle cx="42" cy="46" r="25" fill="#ffd45c"/>
      <path d="m35 46 7 7 16-18" fill="none" stroke="#fff" stroke-width="8" stroke-linecap="round" stroke-linejoin="round"/>
      <rect x="79" y="31" width="48" height="12" rx="6" fill="#7667e8" opacity=".65"/>
      <rect x="79" y="54" width="34" height="10" rx="5" fill="#55c8bc" opacity=".7"/>
    </g>
  </g>
  <g transform="translate(865 790)">
    <rect x="68" y="245" width="42" height="200" rx="20" fill="#a67d55"/>
    <ellipse cx="88" cy="245" rx="94" ry="52" fill="#5cc18e"/>
    <ellipse cx="35" cy="190" rx="74" ry="42" fill="#71cf9d" transform="rotate(-28 35 190)"/>
    <ellipse cx="140" cy="180" rx="72" ry="40" fill="#4fb77f" transform="rotate(28 140 180)"/>
    <ellipse cx="68" cy="125" rx="64" ry="36" fill="#83d8ac" transform="rotate(-8 68 125)"/>
    <ellipse cx="120" cy="95" rx="55" ry="32" fill="#5bc58e" transform="rotate(22 120 95)"/>
  </g>
</svg>