<svg xmlns="http://www.w3.org/2000/svg" viewBox="0 0 1200 800" role="img" aria-label="Lotus Börek Evi börek vitrini demo görseli">
  <defs>
    <linearGradient id="bg" x1="0" y1="0" x2="1" y2="1">
      <stop offset="0" stop-color="#fff7ed"/>
      <stop offset="1" stop-color="#fed7aa"/>
    </linearGradient>
    <linearGradient id="tray" x1="0" y1="0" x2="1" y2="1">
      <stop offset="0" stop-color="#f59e0b"/>
      <stop offset="1" stop-color="#b45309"/>
    </linearGradient>
    <filter id="shadow" x="-20%" y="-20%" width="140%" height="140%">
      <feDropShadow dx="0" dy="18" stdDeviation="18" flood-color="#7c2d12" flood-opacity="0.22"/>
    </filter>
  </defs>
  <rect width="1200" height="800" fill="url(#bg)"/>
  <circle cx="1020" cy="120" r="130" fill="#ffedd5" opacity="0.85"/>
  <circle cx="180" cy="650" r="170" fill="#fdba74" opacity="0.25"/>
  <g filter="url(#shadow)">
    <rect x="150" y="190" width="900" height="430" rx="60" fill="#fffaf0"/>
    <rect x="235" y="280" width="730" height="250" rx="42" fill="#78350f" opacity="0.12"/>
    <rect x="260" y="300" width="680" height="210" rx="38" fill="url(#tray)"/>
    <g fill="#fef3c7" stroke="#92400e" stroke-width="8" opacity="0.98">
      <path d="M310 470c48-95 128-132 208-86 33 19 70 19 107 0 87-45 174-15 229 86z"/>
      <path d="M330 445c46-62 105-82 166-48" fill="none"/>
      <path d="M555 445c55-58 119-70 191-34" fill="none"/>
      <path d="M755 445c34-33 67-44 118-31" fill="none"/>
    </g>
    <g fill="#fff7ed" opacity="0.9">
      <circle cx="398" cy="365" r="12"/>
      <circle cx="464" cy="398" r="9"/>
      <circle cx="626" cy="372" r="10"/>
      <circle cx="705" cy="409" r="8"/>
      <circle cx="822" cy="379" r="11"/>
    </g>
  </g>
  <text x="600" y="705" font-family="Arial, sans-serif" font-size="54" font-weight="800" text-anchor="middle" fill="#7c2d12">Günlük Taze Börek</text>
  <text x="600" y="750" font-family="Arial, sans-serif" font-size="28" font-weight="600" text-anchor="middle" fill="#9a3412">Kol böreği • Su böreği • Gül böreği</text>
</svg>
