<svg xmlns="http://www.w3.org/2000/svg" viewBox="0 0 1200 800" role="img" aria-label="Lotus Börek Evi hamur işleri demo görseli">
  <defs>
    <linearGradient id="bg" x1="0" y1="0" x2="1" y2="1"><stop offset="0" stop-color="#fef3c7"/><stop offset="1" stop-color="#fff7ed"/></linearGradient>
    <filter id="shadow" x="-20%" y="-20%" width="140%" height="140%"><feDropShadow dx="0" dy="16" stdDeviation="16" flood-color="#431407" flood-opacity="0.2"/></filter>
  </defs>
  <rect width="1200" height="800" fill="url(#bg)"/>
  <path d="M0 650c170-80 290-80 430-25 190 75 405 62 770-60v235H0z" fill="#fed7aa" opacity="0.75"/>
  <g filter="url(#shadow)">
    <rect x="140" y="180" width="920" height="410" rx="58" fill="#fffaf0"/>
    <rect x="210" y="440" width="780" height="58" rx="29" fill="#9a3412" opacity="0.18"/>
    <g stroke="#92400e" stroke-width="8" fill="#fbbf24">
      <ellipse cx="330" cy="390" rx="95" ry="58"/>
      <ellipse cx="520" cy="390" rx="96" ry="58" fill="#fed7aa"/>
      <ellipse cx="710" cy="390" rx="95" ry="58"/>
      <ellipse cx="880" cy="390" rx="75" ry="58" fill="#fdba74"/>
    </g>
    <g stroke="#7c2d12" stroke-width="6" fill="none" opacity="0.55">
      <path d="M270 380c38-25 80-27 124 0"/>
      <path d="M465 382c35-24 79-24 118 0"/>
      <path d="M655 382c35-24 79-24 118 0"/>
      <path d="M845 360c30 28 30 58 0 86"/>
    </g>
    <g fill="#78350f" opacity="0.5">
      <circle cx="305" cy="372" r="8"/><circle cx="350" cy="405" r="7"/><circle cx="493" cy="368" r="8"/><circle cx="542" cy="412" r="7"/><circle cx="685" cy="369" r="8"/><circle cx="735" cy="405" r="7"/>
    </g>
  </g>
  <text x="600" y="700" font-family="Arial, sans-serif" font-size="54" font-weight="800" text-anchor="middle" fill="#7c2d12">Hamur İşleri</text>
  <text x="600" y="746" font-family="Arial, sans-serif" font-size="28" font-weight="600" text-anchor="middle" fill="#9a3412">Simit • Poğaça • Günlük sıcak ürünler</text>
</svg>
