<svg xmlns="http://www.w3.org/2000/svg" viewBox="0 0 1200 800" role="img" aria-label="Lotus Börek Evi kahvaltılıklar demo görseli">
  <defs>
    <linearGradient id="bg" x1="0" y1="0" x2="1" y2="1"><stop offset="0" stop-color="#fffbeb"/><stop offset="1" stop-color="#fed7aa"/></linearGradient>
    <filter id="shadow" x="-20%" y="-20%" width="140%" height="140%"><feDropShadow dx="0" dy="16" stdDeviation="16" flood-color="#431407" flood-opacity="0.2"/></filter>
  </defs>
  <rect width="1200" height="800" fill="url(#bg)"/>
  <path d="M0 120c160 80 310 90 455 22 185-87 380-80 745 40V0H0z" fill="#fde68a" opacity="0.55"/>
  <g filter="url(#shadow)">
    <rect x="145" y="175" width="910" height="430" rx="58" fill="#fffaf0"/>
    <circle cx="430" cy="385" r="132" fill="#fff7ed" stroke="#92400e" stroke-width="9"/>
    <circle cx="430" cy="385" r="54" fill="#facc15" stroke="#b45309" stroke-width="8"/>
    <rect x="600" y="280" width="250" height="190" rx="40" fill="#fbbf24" stroke="#92400e" stroke-width="8"/>
    <path d="M625 330c65-35 130-35 200 0" stroke="#7c2d12" stroke-width="8" fill="none" opacity="0.55"/>
    <path d="M625 385c65-35 130-35 200 0" stroke="#7c2d12" stroke-width="8" fill="none" opacity="0.55"/>
    <g fill="#fdba74" stroke="#92400e" stroke-width="7">
      <ellipse cx="635" cy="505" rx="72" ry="32"/>
      <ellipse cx="785" cy="505" rx="72" ry="32"/>
    </g>
  </g>
  <text x="600" y="700" font-family="Arial, sans-serif" font-size="54" font-weight="800" text-anchor="middle" fill="#7c2d12">Kahvaltılıklar</text>
  <text x="600" y="746" font-family="Arial, sans-serif" font-size="28" font-weight="600" text-anchor="middle" fill="#9a3412">Sıcak ürünler • Simit • Poğaça • Kahvaltı seçenekleri</text>
</svg>
