<svg xmlns="http://www.w3.org/2000/svg" viewBox="0 0 1200 800" role="img" aria-label="Lotus Börek Evi tatlı ve baklava demo görseli">
  <defs>
    <linearGradient id="bg" x1="0" y1="0" x2="1" y2="1"><stop offset="0" stop-color="#fff7ed"/><stop offset="1" stop-color="#fde68a"/></linearGradient>
    <linearGradient id="bak" x1="0" y1="0" x2="1" y2="1"><stop offset="0" stop-color="#facc15"/><stop offset="1" stop-color="#d97706"/></linearGradient>
    <filter id="shadow" x="-20%" y="-20%" width="140%" height="140%"><feDropShadow dx="0" dy="16" stdDeviation="16" flood-color="#431407" flood-opacity="0.22"/></filter>
  </defs>
  <rect width="1200" height="800" fill="url(#bg)"/>
  <circle cx="180" cy="160" r="120" fill="#fed7aa" opacity="0.55"/>
  <circle cx="1030" cy="600" r="170" fill="#fdba74" opacity="0.28"/>
  <g filter="url(#shadow)">
    <rect x="145" y="175" width="910" height="430" rx="58" fill="#fffaf0"/>
    <rect x="235" y="280" width="730" height="240" rx="38" fill="#92400e" opacity="0.13"/>
    <g transform="translate(310 310)">
      <g fill="url(#bak)" stroke="#92400e" stroke-width="6">
        <path d="M0 80l90-80 90 80-90 80z"/>
        <path d="M145 80l90-80 90 80-90 80z"/>
        <path d="M290 80l90-80 90 80-90 80z"/>
        <path d="M435 80l90-80 90 80-90 80z"/>
        <path d="M72 190l90-80 90 80-90 80z"/>
        <path d="M217 190l90-80 90 80-90 80z"/>
        <path d="M362 190l90-80 90 80-90 80z"/>
      </g>
      <g fill="#fff7ed" opacity="0.85">
        <circle cx="90" cy="80" r="9"/><circle cx="235" cy="80" r="9"/><circle cx="380" cy="80" r="9"/><circle cx="525" cy="80" r="9"/><circle cx="162" cy="190" r="9"/><circle cx="307" cy="190" r="9"/><circle cx="452" cy="190" r="9"/>
      </g>
    </g>
  </g>
  <text x="600" y="700" font-family="Arial, sans-serif" font-size="54" font-weight="800" text-anchor="middle" fill="#7c2d12">Tatlı & Baklava</text>
  <text x="600" y="746" font-family="Arial, sans-serif" font-size="28" font-weight="600" text-anchor="middle" fill="#9a3412">Cevizli baklava • Kurabiye • Günlük tatlılar</text>
</svg>
